<svg viewBox="0 0 1024 1024" version="1.1" xmlns="http://www.w3.org/2000/svg">
    <g transform="scale(1.15) translate(-67, -45)">
        <path fill="currentColor" d="M901.5328 284.93536C904.5728 282.94624 908.6912 283.58624 910.5952 286.68544 915.8912 295.29312 918.8416 305.3232 918.8448 315.7792V708.2176C918.8448 728.064 908.2496 746.4192 891.0624 756.3424L551.1872 952.56C534.0032 962.4768 512.8416 962.4768 495.6576 952.56L155.78112 756.3424C151.7488 754.0128 148.06528 751.2288 144.81248 748.0608 141.60672 744.9376 142.92032 739.7696 147 737.936 223.00128 703.9968 345.7696 659.424 419.376 682.3104 493.1616 705.2576 508.0544 761.3248 524.4384 812.592 526.5088 819.0752 535.9616 819.0304 538.4992 812.7168 554.6976 772.2944 589.0944 710.432 622.8736 690.9664 660.2176 669.4528 707.072 654.816 762.3744 650.7808 767.968 650.368 771.1232 643.9008 768.1888 639.1232 750.5696 610.4352 734.6208 567.632 729.6864 522.8736 725.888 488.3744 730.7296 456.768 737.6864 432.4032 739.584 425.7696 731.8656 419.7056 726.1248 423.5296L685.936 450.3424C684.64 451.2064 683.6416 452.464 683.2192 453.968 678.6592 470.2432 676.9376 503.2128 676.9376 517.0304 676.9376 536.256 675.1296 572.6976 684.656 595.904 686.4416 600.256 684.4672 605.6352 679.936 606.9056 658.5472 612.9024 635.136 618.4768 602.5312 634.7808 565.8208 653.136 551.0464 672.3392 536.1888 686.56 533.5136 689.1104 529.2864 688.9664 526.5632 686.4672 518.6016 679.1616 500.9344 663.9104 475.4048 647.4976 453.8304 633.6288 426.6304 626.2784 408.5632 622.6528 402.0704 621.344 400.048 612.2464 405.5936 608.624L901.5328 284.93536ZM495.6576 71.43552C512.8384 61.5216 534.0064 61.5216 551.1872 71.43552L891.0624 267.6544C891.4336 267.87072 891.8208 268.1168 892.1888 268.34176 896.48 270.97056 895.6 277.03104 891.0304 279.15424 811.6608 316.03968 689.5552 379.0272 612.2496 321.3408 582.6368 299.24128 551.2 247.28512 533.6864 209.99808 530.896 204.06336 521.8336 204.36192 519.4368 210.46688 503.5392 251.1008 476.1184 299.2928 432.5312 328.592 388.352 358.288 327.7408 358.0928 290.90624 355.968 285.15328 355.6352 281.36096 361.9424 284.34368 366.8736 302.87584 397.5104 331.9072 450.4448 331.9072 480.8096 331.904 508.5088 325.8016 547.2384 320.9056 572.8416 319.7376 578.992 326.5728 583.6928 331.8432 580.3104L371.344 554.9056C372.8352 553.9456 373.9136 552.4416 374.3136 550.7168 377.7216 535.9904 382.2176 506.1664 382.2176 495.28 382.2176 470.0672 382.208 439.3696 372.7488 417.4976 370.7744 412.9248 373.1616 407.216 378 406.0288 401.8368 400.1984 434.1152 389.4144 454.0928 379.3408 473.8976 369.36 503.9872 337.1424 519.6256 317.59168 522.7488 313.68768 528.9472 313.896 531.936 317.90432 555.6384 349.664 596.0224 377.2768 624.9056 390.4352 630.208 392.8576 631.1168 400.4608 626.2816 403.7152L141.09376 730.2784C137.65088 732.5952 132.91488 731.4496 131.4688 727.5616 129.20448 721.4656 128 714.9216 128 708.2176V315.7792C128.00032 295.93248 138.5936 277.57856 155.78112 267.6544L495.6576 71.43552Z"/>
    </g>
</svg>